<svg xmlns="http://www.w3.org/2000/svg" fill="none" aria-hidden="true" viewBox="0 0 28 20">
<rect width="28" height="19.9967" fill="url(#paint0_linear_7372_2137)"/>
<g clip-path="url(#clip0_7372_2137)">
<path d="M13.9991 3C12.6145 3 11.261 3.41059 10.1097 4.17986C8.9584 4.94912 8.06108 6.0425 7.5312 7.32174C7.00132 8.60098 6.86268 10.0086 7.13281 11.3666C7.40294 12.7247 8.06971 13.9721 9.04879 14.9512C10.0279 15.9303 11.2753 16.597 12.6333 16.8672C13.9914 17.1373 15.399 16.9987 16.6782 16.4688C17.9575 15.9389 19.0509 15.0416 19.8201 13.8903C20.5894 12.739 21 11.3855 21 10.0008C21 9.08148 20.8189 8.17112 20.4671 7.32174C20.1153 6.47236 19.5996 5.70059 18.9495 5.0505C18.2994 4.40041 17.5276 3.88473 16.6782 3.53291C15.8289 3.18108 14.9185 3 13.9991 3V3ZM14.1126 10.2312L13.3844 12.6884H17.2794C17.3104 12.6885 17.3409 12.6958 17.3686 12.7097C17.3963 12.7236 17.4204 12.7437 17.4389 12.7685C17.4575 12.7933 17.47 12.8221 17.4755 12.8526C17.4811 12.883 17.4794 12.9144 17.4708 12.9441L17.1321 14.1109C17.1159 14.1667 17.0821 14.2156 17.0356 14.2505C16.9892 14.2853 16.9327 14.3041 16.8747 14.304H10.9255L11.9314 10.9069L10.8188 11.2456L11.0643 10.4513L12.1787 10.1126L13.591 5.34039C13.6065 5.28447 13.6399 5.23516 13.6861 5.2C13.7323 5.16483 13.7887 5.14574 13.8467 5.14564H15.3539C15.3849 5.14553 15.4154 5.1526 15.4431 5.16629C15.4708 5.17999 15.495 5.19993 15.5137 5.22455C15.5325 5.24918 15.5452 5.27781 15.551 5.3082C15.5567 5.33858 15.5554 5.36989 15.547 5.39966L14.3615 9.43522L15.4742 9.09653L15.2354 9.90432L14.1126 10.2312Z" fill="#3B5893"/>
</g>
<defs>
<linearGradient id="paint0_linear_7372_2137" x1="-1.06542e-07" y1="20.4983" x2="28" y2="-0.50166" gradientUnits="userSpaceOnUse">
<stop stop-color="#F3F3F3"/>
<stop offset="1" stop-color="#C3CFE2"/>
</linearGradient>
<clipPath id="clip0_7372_2137">
<rect width="14" height="14" fill="white" transform="translate(7 3)"/>
</clipPath>
</defs>
</svg>
